<?xml version="1.0" encoding="UTF-8" standalone="no"?>
<!DOCTYPE svg PUBLIC "-//W3C//DTD SVG 1.1//EN"
 "http://www.w3.org/Graphics/SVG/1.1/DTD/svg11.dtd">
<!-- Generated by graphviz version 2.40.1 (20161225.0304)
 -->
<!-- Title: models_diagram Pages: 1 -->
<svg width="483pt" height="336pt"
 viewBox="0.00 0.00 483.00 336.00" xmlns="http://www.w3.org/2000/svg" xmlns:xlink="http://www.w3.org/1999/xlink">
<g id="graph0" class="graph" transform="scale(1 1) rotate(0) translate(36 300)">
<title>models_diagram</title>
<polygon fill="#ffffff" stroke="transparent" points="-36,36 -36,-300 447,-300 447,36 -36,36"/>
<!-- Target -->
<g id="node1" class="node">
<title>Target</title>
<polygon fill="#add8e6" stroke="transparent" points=".5,-209 .5,-231 119.5,-231 119.5,-209 .5,-209"/>
<polygon fill="none" stroke="#000000" points=".5,-209 .5,-231 119.5,-231 119.5,-209 .5,-209"/>
<text text-anchor="start" x="46.9525" y="-218" font-family="Times,serif" font-weight="bold" font-size="10.00" fill="#000000">Target</text>
<polygon fill="none" stroke="#000000" points=".5,-187 .5,-209 119.5,-209 119.5,-187 .5,-187"/>
<text text-anchor="start" x="5.5" y="-196" font-family="Times,serif" text-decoration="underline" font-size="10.00" fill="#000000">id</text>
<text text-anchor="start" x="13.279" y="-196" font-family="Times,serif" font-size="10.00" fill="#000000">: NUMBER</text>
<polygon fill="none" stroke="#000000" points=".5,-165 .5,-187 119.5,-187 119.5,-165 .5,-165"/>
<text text-anchor="start" x="5.5" y="-173" font-family="Times,serif" font-size="10.00" fill="#000000">title: STRING</text>
<polygon fill="none" stroke="#000000" points=".5,-143 .5,-165 119.5,-165 119.5,-143 .5,-143"/>
<text text-anchor="start" x="5.5" y="-151" font-family="Times,serif" font-size="10.00" fill="#000000">description: STRING</text>
<polygon fill="none" stroke="#000000" points=".5,-121 .5,-143 119.5,-143 119.5,-121 .5,-121"/>
<text text-anchor="start" x="5.5" y="-129" font-family="Times,serif" font-size="10.00" fill="#000000">targetImageUrl: STRING</text>
<polygon fill="none" stroke="#000000" points=".5,-99 .5,-121 119.5,-121 119.5,-99 .5,-99"/>
<text text-anchor="start" x="5.159" y="-107" font-family="Times,serif" font-size="10.00" fill="#000000">overlayImageUrl: STRING</text>
<polygon fill="none" stroke="#000000" points=".5,-77 .5,-99 119.5,-99 119.5,-77 .5,-77"/>
<text text-anchor="start" x="5.5" y="-85" font-family="Times,serif" font-size="10.00" fill="#000000">targetMindUrl: STRING</text>
<polygon fill="none" stroke="#000000" points=".5,-55 .5,-77 119.5,-77 119.5,-55 .5,-55"/>
<text text-anchor="start" x="5.5" y="-63" font-family="Times,serif" font-size="10.00" fill="#000000">createdAt: DATE</text>
<polygon fill="none" stroke="#000000" points=".5,-33 .5,-55 119.5,-55 119.5,-33 .5,-33"/>
<text text-anchor="start" x="5.5" y="-41" font-family="Times,serif" font-size="10.00" fill="#000000">updatedAt: DATE</text>
</g>
<!-- Campaign -->
<g id="node2" class="node">
<title>Campaign</title>
<polygon fill="#add8e6" stroke="transparent" points="314.5,-242 314.5,-264 411.5,-264 411.5,-242 314.5,-242"/>
<polygon fill="none" stroke="#000000" points="314.5,-242 314.5,-264 411.5,-264 411.5,-242 314.5,-242"/>
<text text-anchor="start" x="342.4475" y="-251" font-family="Times,serif" font-weight="bold" font-size="10.00" fill="#000000">Campaign</text>
<polygon fill="none" stroke="#000000" points="314.5,-220 314.5,-242 411.5,-242 411.5,-220 314.5,-220"/>
<text text-anchor="start" x="319.5" y="-229" font-family="Times,serif" text-decoration="underline" font-size="10.00" fill="#000000">id</text>
<text text-anchor="start" x="327.279" y="-229" font-family="Times,serif" font-size="10.00" fill="#000000">: NUMBER</text>
<polygon fill="none" stroke="#000000" points="314.5,-198 314.5,-220 411.5,-220 411.5,-198 314.5,-198"/>
<text text-anchor="start" x="319.5" y="-206" font-family="Times,serif" font-size="10.00" fill="#000000">title: STRING</text>
<polygon fill="none" stroke="#000000" points="314.5,-176 314.5,-198 411.5,-198 411.5,-176 314.5,-176"/>
<text text-anchor="start" x="319.5" y="-184" font-family="Times,serif" font-size="10.00" fill="#000000">message: STRING</text>
<polygon fill="none" stroke="#000000" points="314.5,-154 314.5,-176 411.5,-176 411.5,-154 314.5,-154"/>
<text text-anchor="start" x="319.5" y="-162" font-family="Times,serif" font-size="10.00" fill="#000000">target_url: STRING</text>
<polygon fill="none" stroke="#000000" points="314.5,-132 314.5,-154 411.5,-154 411.5,-132 314.5,-132"/>
<text text-anchor="start" x="319.2615" y="-140" font-family="Times,serif" font-size="10.00" fill="#000000">overlay_url: STRING</text>
<polygon fill="none" stroke="#000000" points="314.5,-110 314.5,-132 411.5,-132 411.5,-110 314.5,-110"/>
<text text-anchor="start" x="319.5" y="-119" font-family="Times,serif" font-style="italic" text-decoration="underline" font-size="10.00" fill="#000000">targetId</text>
<text text-anchor="start" x="350.594" y="-119" font-family="Times,serif" font-size="10.00" fill="#000000">: NUMBER</text>
<polygon fill="none" stroke="#000000" points="314.5,-88 314.5,-110 411.5,-110 411.5,-88 314.5,-88"/>
<text text-anchor="start" x="319.5" y="-96" font-family="Times,serif" font-size="10.00" fill="#000000">button_url: STRING</text>
<polygon fill="none" stroke="#000000" points="314.5,-66 314.5,-88 411.5,-88 411.5,-66 314.5,-66"/>
<text text-anchor="start" x="319.5" y="-74" font-family="Times,serif" font-size="10.00" fill="#000000">isActive: BOOLEAN</text>
<polygon fill="none" stroke="#000000" points="314.5,-44 314.5,-66 411.5,-66 411.5,-44 314.5,-44"/>
<text text-anchor="start" x="319.5" y="-52" font-family="Times,serif" font-size="10.00" fill="#000000">comments: STRING</text>
<polygon fill="none" stroke="#000000" points="314.5,-22 314.5,-44 411.5,-44 411.5,-22 314.5,-22"/>
<text text-anchor="start" x="319.5" y="-30" font-family="Times,serif" font-size="10.00" fill="#000000">createdAt: DATE</text>
<polygon fill="none" stroke="#000000" points="314.5,0 314.5,-22 411.5,-22 411.5,0 314.5,0"/>
<text text-anchor="start" x="319.5" y="-8" font-family="Times,serif" font-size="10.00" fill="#000000">updatedAt: DATE</text>
</g>
<!-- Campaign&#45;&gt;Target -->
<g id="edge1" class="edge">
<title>Campaign&#45;&gt;Target</title>
<path fill="none" stroke="#000000" stroke-width=".75" d="M307.7954,-132C254.6256,-132 174.0895,-132 119.2627,-132"/>
<polygon fill="#000000" stroke="#000000" stroke-width=".75" points="307.8178,-132.0001 313.8179,-134.7 310.8178,-132 313.8178,-132 313.8178,-132 313.8178,-132 310.8178,-132 313.8178,-129.3 307.8178,-132.0001 307.8178,-132.0001"/>
</g>
</g>
</svg>
