<?xml version="1.0" encoding="UTF-8" standalone="no"?>
<!DOCTYPE svg PUBLIC "-//W3C//DTD SVG 1.1//EN"
 "http://www.w3.org/Graphics/SVG/1.1/DTD/svg11.dtd">
<!-- Generated by graphviz version 2.40.1 (20161225.0304)
 -->
<!-- Title: models_diagram Pages: 1 -->
<svg width="654pt" height="292pt"
 viewBox="0.00 0.00 654.00 292.00" xmlns="http://www.w3.org/2000/svg" xmlns:xlink="http://www.w3.org/1999/xlink">
<g id="graph0" class="graph" transform="scale(1 1) rotate(0) translate(36 256)">
<title>models_diagram</title>
<polygon fill="#ffffff" stroke="transparent" points="-36,36 -36,-256 618,-256 618,36 -36,36"/>
<!-- CampaignImages -->
<g id="node1" class="node">
<title>CampaignImages</title>
<polygon fill="#add8e6" stroke="transparent" points=".5,-165 .5,-187 133.5,-187 133.5,-165 .5,-165"/>
<polygon fill="none" stroke="#000000" points=".5,-165 .5,-187 133.5,-187 133.5,-165 .5,-165"/>
<text text-anchor="start" x="32.01" y="-174" font-family="Times,serif" font-weight="bold" font-size="10.00" fill="#000000">CampaignImages</text>
<polygon fill="none" stroke="#000000" points=".5,-143 .5,-165 133.5,-165 133.5,-143 .5,-143"/>
<text text-anchor="start" x="5.5" y="-152" font-family="Times,serif" text-decoration="underline" font-size="10.00" fill="#000000">id</text>
<text text-anchor="start" x="13.279" y="-152" font-family="Times,serif" font-size="10.00" fill="#000000">: NUMBER</text>
<polygon fill="none" stroke="#000000" points=".5,-121 .5,-143 133.5,-143 133.5,-121 .5,-121"/>
<text text-anchor="start" x="5.5" y="-129" font-family="Times,serif" font-size="10.00" fill="#000000">title: STRING</text>
<polygon fill="none" stroke="#000000" points=".5,-99 .5,-121 133.5,-121 133.5,-99 .5,-99"/>
<text text-anchor="start" x="5.5" y="-107" font-family="Times,serif" font-size="10.00" fill="#000000">redactedImageUrl: STRING</text>
<polygon fill="none" stroke="#000000" points=".5,-77 .5,-99 133.5,-99 133.5,-77 .5,-77"/>
<text text-anchor="start" x="5.22" y="-85" font-family="Times,serif" font-size="10.00" fill="#000000">unredactedImageUrl: STRING</text>
<polygon fill="none" stroke="#000000" points=".5,-55 .5,-77 133.5,-77 133.5,-55 .5,-55"/>
<text text-anchor="start" x="5.5" y="-63" font-family="Times,serif" font-size="10.00" fill="#000000">createdAt: DATE</text>
<polygon fill="none" stroke="#000000" points=".5,-33 .5,-55 133.5,-55 133.5,-33 .5,-33"/>
<text text-anchor="start" x="5.5" y="-41" font-family="Times,serif" font-size="10.00" fill="#000000">updatedAt: DATE</text>
</g>
<!-- JunctionTable -->
<g id="node3" class="node">
<title>JunctionTable</title>
<polygon fill="#add8e6" stroke="transparent" points="215.5,-143 215.5,-165 345.5,-165 345.5,-143 215.5,-143"/>
<polygon fill="none" stroke="#000000" points="215.5,-143 215.5,-165 345.5,-165 345.5,-143 215.5,-143"/>
<text text-anchor="start" x="252.174" y="-152" font-family="Times,serif" font-weight="bold" font-size="10.00" fill="#000000">JunctionTable</text>
<polygon fill="none" stroke="#000000" points="215.5,-121 215.5,-143 345.5,-143 345.5,-121 215.5,-121"/>
<text text-anchor="start" x="220.5" y="-130" font-family="Times,serif" text-decoration="underline" font-size="10.00" fill="#000000">campaignId</text>
<text text-anchor="start" x="267.704" y="-130" font-family="Times,serif" font-size="10.00" fill="#000000">: STRING</text>
<polygon fill="none" stroke="#000000" points="215.5,-99 215.5,-121 345.5,-121 345.5,-99 215.5,-99"/>
<text text-anchor="start" x="220.3785" y="-108" font-family="Times,serif" text-decoration="underline" font-size="10.00" fill="#000000">campaignImageId</text>
<text text-anchor="start" x="292.5685" y="-108" font-family="Times,serif" font-size="10.00" fill="#000000">: NUMBER</text>
<polygon fill="none" stroke="#000000" points="215.5,-77 215.5,-99 345.5,-99 345.5,-77 215.5,-77"/>
<text text-anchor="start" x="220.5" y="-85" font-family="Times,serif" font-size="10.00" fill="#000000">createdAt: DATE</text>
<polygon fill="none" stroke="#000000" points="215.5,-55 215.5,-77 345.5,-77 345.5,-55 215.5,-55"/>
<text text-anchor="start" x="220.5" y="-63" font-family="Times,serif" font-size="10.00" fill="#000000">updatedAt: DATE</text>
</g>
<!-- CampaignImages&#45;&gt;JunctionTable -->
<g id="edge1" class="edge">
<title>CampaignImages&#45;&gt;JunctionTable</title>
<path fill="none" stroke="#000000" stroke-width=".75" d="M133.0379,-110C157.2434,-110 184.6888,-110 209.2836,-110"/>
<polygon fill="#000000" stroke="#000000" stroke-width=".75" points="209.4713,-110.0001 215.4714,-112.7 212.4713,-110 215.4713,-110 215.4713,-110 215.4713,-110 212.4713,-110 215.4713,-107.3 209.4713,-110.0001 209.4713,-110.0001"/>
</g>
<!-- Campaign -->
<g id="node2" class="node">
<title>Campaign</title>
<polygon fill="#add8e6" stroke="transparent" points="473.5,-198 473.5,-220 582.5,-220 582.5,-198 473.5,-198"/>
<polygon fill="none" stroke="#000000" points="473.5,-198 473.5,-220 582.5,-220 582.5,-198 473.5,-198"/>
<text text-anchor="start" x="507.4475" y="-207" font-family="Times,serif" font-weight="bold" font-size="10.00" fill="#000000">Campaign</text>
<polygon fill="none" stroke="#000000" points="473.5,-176 473.5,-198 582.5,-198 582.5,-176 473.5,-176"/>
<text text-anchor="start" x="478.5" y="-185" font-family="Times,serif" text-decoration="underline" font-size="10.00" fill="#000000">id</text>
<text text-anchor="start" x="486.279" y="-185" font-family="Times,serif" font-size="10.00" fill="#000000">: STRING</text>
<polygon fill="none" stroke="#000000" points="473.5,-154 473.5,-176 582.5,-176 582.5,-154 473.5,-154"/>
<text text-anchor="start" x="478.5" y="-162" font-family="Times,serif" font-size="10.00" fill="#000000">title: STRING</text>
<polygon fill="none" stroke="#000000" points="473.5,-132 473.5,-154 582.5,-154 582.5,-132 473.5,-132"/>
<text text-anchor="start" x="478.5" y="-140" font-family="Times,serif" font-size="10.00" fill="#000000">message: STRING</text>
<polygon fill="none" stroke="#000000" points="473.5,-110 473.5,-132 582.5,-132 582.5,-110 473.5,-110"/>
<text text-anchor="start" x="478.4285" y="-118" font-family="Times,serif" font-size="10.00" fill="#000000">targetMindUrl: STRING</text>
<polygon fill="none" stroke="#000000" points="473.5,-88 473.5,-110 582.5,-110 582.5,-88 473.5,-88"/>
<text text-anchor="start" x="478.5" y="-96" font-family="Times,serif" font-size="10.00" fill="#000000">targetIdMap: JSON</text>
<polygon fill="none" stroke="#000000" points="473.5,-66 473.5,-88 582.5,-88 582.5,-66 473.5,-66"/>
<text text-anchor="start" x="478.5" y="-74" font-family="Times,serif" font-size="10.00" fill="#000000">buttonUrl: STRING</text>
<polygon fill="none" stroke="#000000" points="473.5,-44 473.5,-66 582.5,-66 582.5,-44 473.5,-44"/>
<text text-anchor="start" x="478.5" y="-52" font-family="Times,serif" font-size="10.00" fill="#000000">isActive: BOOLEAN</text>
<polygon fill="none" stroke="#000000" points="473.5,-22 473.5,-44 582.5,-44 582.5,-22 473.5,-22"/>
<text text-anchor="start" x="478.5" y="-30" font-family="Times,serif" font-size="10.00" fill="#000000">createdAt: DATE</text>
<polygon fill="none" stroke="#000000" points="473.5,0 473.5,-22 582.5,-22 582.5,0 473.5,0"/>
<text text-anchor="start" x="478.5" y="-8" font-family="Times,serif" font-size="10.00" fill="#000000">updatedAt: DATE</text>
</g>
<!-- Campaign&#45;&gt;JunctionTable -->
<g id="edge2" class="edge">
<title>Campaign&#45;&gt;JunctionTable</title>
<path fill="none" stroke="#000000" stroke-width=".75" d="M472.989,-110C437.3876,-110 390.5246,-110 351.9521,-110"/>
<polygon fill="#000000" stroke="#000000" stroke-width=".75" points="351.8357,-110.0001 345.8357,-107.3 348.8357,-110 345.8357,-110 345.8357,-110 345.8357,-110 348.8357,-110 345.8356,-112.7 351.8357,-110.0001 351.8357,-110.0001"/>
</g>
</g>
</svg>
